<svg width="21" height="22" viewBox="0 0 21 22" fill="none" xmlns="http://www.w3.org/2000/svg">
<path d="M9.99999 2.02994C12.7 2.02994 13 2.02994 14 2.13678C15 2.13678 15.5 2.35045 15.9 2.45729C16.4 2.67097 16.7 2.88465 17 3.312C17.4 3.73936 17.6 4.05988 17.7 4.48723C17.9 4.91459 18.1 5.44878 18.1 6.51717C18.1 7.6924 18.2 8.01291 18.2 10.7907C18.2 13.6754 18.2 13.9959 18.1 15.0643C18.1 16.1327 17.9 16.6669 17.8 17.0942C17.6 17.6284 17.4 17.9489 17.1 18.2694C16.8 18.59 16.4 18.9105 16 19.0173C15.6 19.1242 15.1 19.3378 14.1 19.3378C13 19.3378 12.7 19.4447 10.1 19.4447C7.39999 19.4447 7.09999 19.4447 6.09999 19.3378C5.09999 19.3378 4.59999 19.1242 4.19999 19.0173C3.6 18.9105 3.3 18.6968 3 18.2694C2.7 17.8421 2.4 17.5216 2.3 17.0942C2.1 16.6669 1.9 16.1327 1.9 15.0643C1.9 13.8891 1.8 13.5685 1.8 10.7907C1.8 7.90608 1.8 7.58556 1.9 6.51717C1.9 5.44878 2.1 4.91459 2.2 4.48723C2.4 3.95304 2.6 3.63252 3 3.312C3.4 2.88465 3.7 2.67097 4.09999 2.56413C4.49999 2.35045 4.99999 2.13678 5.99999 2.13678C6.99999 2.02994 7.29999 2.02994 9.99999 2.02994ZM9.99999 0.106839C7.29999 0.106839 6.89999 0.106839 5.89999 0.213678C4.79999 0.213678 4.09999 0.427355 3.5 0.747872C2.8 0.96155 2.2 1.28207 1.7 1.9231C1.1 2.45729 0.799999 3.09833 0.499999 3.73936C0.3 4.48723 0.0999999 5.2351 0.0999999 6.41033C0 7.47872 0 7.90608 0 10.7907C0 13.6754 0 14.1027 0.0999999 15.1711C0.0999999 16.3463 0.3 17.0942 0.599999 17.7352C0.899999 18.4831 1.2 19.0173 1.8 19.6583C2.4 20.2994 2.9 20.6199 3.6 20.9404C4.19999 21.1541 4.99999 21.3678 5.99999 21.4746C6.89999 21.4746 7.29999 21.4746 9.99999 21.4746C12.7 21.4746 13.1 21.4746 14.1 21.3678C15.2 21.3678 15.9 21.1541 16.5 20.8336C17.2 20.5131 17.7 20.1925 18.3 19.5515C18.9 18.9105 19.2 18.3763 19.5 17.6284C19.7 16.9874 19.9 16.1327 20 15.0643C20 13.8891 20.1 13.5685 20.1 10.6839C20.1 7.79924 20.1 7.37188 20 6.30349C20 5.12826 19.8 4.38039 19.5 3.73936C19.2 2.99149 18.9 2.45729 18.3 1.81626C17.7 1.17523 17.2 0.854711 16.5 0.534194C15.9 0.320517 15.1 0.106839 14.1 0C13.1 0.106839 12.7 0.106839 9.99999 0.106839Z" fill="#53200B"/>
<path d="M10 5.34082C7.20001 5.34082 4.90002 7.79811 4.90002 10.7896C4.90002 13.7811 7.20001 16.2383 10 16.2383C12.8 16.2383 15.1 13.7811 15.1 10.7896C15.1 7.79811 12.8 5.34082 10 5.34082ZM10 14.3153C8.20001 14.3153 6.70002 12.7127 6.70002 10.7896C6.70002 8.86649 8.20001 7.26391 10 7.26391C11.8 7.26391 13.3 8.86649 13.3 10.7896C13.3 12.7127 11.8 14.3153 10 14.3153Z" fill="#53200B"/>
<path d="M16.5 5.12874C16.5 5.87661 16 6.41081 15.3 6.41081C14.6 6.41081 14.1 5.87661 14.1 5.12874C14.1 4.38087 14.6 3.84668 15.3 3.84668C16 3.84668 16.5 4.38087 16.5 5.12874Z" fill="#53200B"/>
</svg>
