<svg width="20" height="16" viewBox="0 0 20 16" fill="none" xmlns="http://www.w3.org/2000/svg">
<path d="M19.6 2.55554C19.4 1.59399 18.7 0.952952 17.8 0.632435C16.3 0.205078 10 0.205078 10 0.205078C10 0.205078 3.7 0.205078 2.2 0.632435C1.3 0.846113 0.6 1.59399 0.4 2.55554C0 4.15812 0 7.68382 0 7.68382C0 7.68382 0 11.2095 0.4 12.8121C0.6 13.7736 1.3 14.4147 2.2 14.7352C3.7 15.1626 10 15.1626 10 15.1626C10 15.1626 16.3 15.1626 17.8 14.7352C18.7 14.5215 19.3 13.7736 19.6 12.8121C20 11.2095 20 7.68382 20 7.68382C20 7.68382 20 4.15812 19.6 2.55554ZM8 10.889V4.47864L13.2 7.68382L8 10.889Z" fill="#53200B"/>
</svg>
